<?xml version="1.0" encoding="UTF-8" standalone="no"?>
<svg
   xmlns:dc="http://purl.org/dc/elements/1.1/"
   xmlns:cc="http://creativecommons.org/ns#"
   xmlns:rdf="http://www.w3.org/1999/02/22-rdf-syntax-ns#"
   xmlns:svg="http://www.w3.org/2000/svg"
   xmlns="http://www.w3.org/2000/svg"
   xmlns:sodipodi="http://sodipodi.sourceforge.net/DTD/sodipodi-0.dtd"
   xmlns:inkscape="http://www.inkscape.org/namespaces/inkscape"
   id="svg"
   version="1.1"
   width="400"
   height="50"
   viewBox="0 0 400 50.000005"
   sodipodi:docname="logo.svg"
   inkscape:version="1.0beta2 (2b71d25, 2019-12-03)">
  <metadata
     id="metadata82">
    <rdf:RDF>
      <cc:Work
         rdf:about="">
        <dc:format>image/svg+xml</dc:format>
        <dc:type
           rdf:resource="http://purl.org/dc/dcmitype/StillImage" />
        <dc:title />
      </cc:Work>
    </rdf:RDF>
  </metadata>
  <defs
     id="defs80" />
  <sodipodi:namedview
     inkscape:snap-nodes="false"
     pagecolor="#ffffff"
     bordercolor="#666666"
     inkscape:document-rotation="0"
     borderopacity="1"
     objecttolerance="10"
     gridtolerance="10"
     guidetolerance="10"
     inkscape:pageopacity="0"
     inkscape:pageshadow="2"
     inkscape:window-width="1920"
     inkscape:window-height="1035"
     id="namedview78"
     showgrid="false"
     inkscape:object-paths="true"
     inkscape:zoom="1.7785571"
     inkscape:cx="125.19632"
     inkscape:cy="57.756063"
     inkscape:window-x="0"
     inkscape:window-y="23"
     inkscape:window-maximized="1"
     inkscape:current-layer="svgg"
     inkscape:snap-object-midpoints="true" />
  <g
     id="svgg">
    <path
       id="path1"
       d="m 11.337911,6.8041 v 5.01467 h 5.026583 l 0.03687,-5.01467 m 7.681752,4.607099 c -2.227405,0.01067 -4.438232,-0.01078 -6.665638,0 v 1.428756 c -2.498442,0.01436 -5.052705,-0.0051 -7.551174,0 v 1.225021 h 2.068148 c 9.88e-4,2.677489 0.0036,0.933266 0,3.916115 H 9.866297 v 1.215336 c 10.753606,0.02186 21.522572,0.04381 32.276177,0.06577 8.311873,0.0121 8.899159,13.957378 0.0933,13.955346 -26.360695,0.11717 -26.906923,0.104849 -26.906923,0.104849 0,-8.904458 0,0.01108 0,-8.893377 H 5.1019197 c -0.033848,4.869983 -0.04694,13.183029 0.06115,13.824119 0.4060689,2.408315 2.0062661,4.272611 4.3145203,5.026592 0.99398,0.324794 0.441181,0.314512 16.86028,0.313754 17.089523,-8.31e-4 16.293187,0.01765 18.507132,-0.429897 0.187107,-0.03776 0.424881,-0.0948 0.528213,-0.126404 0.103587,-0.0316 0.397789,-0.118648 0.654378,-0.193136 0.598688,-0.173816 0.978167,-0.298711 1.211943,-0.398542 0.1026,-0.04381 0.326311,-0.136685 0.497357,-0.206679 0.737647,-0.301215 1.588412,-0.733872 2.237772,-1.138201 0.1026,-0.06392 0.228491,-0.135679 0.279658,-0.159769 0.11437,-0.05336 1.50664,-1.039869 1.625277,-1.151231 0.04699,-0.04442 0.280921,-0.24655 0.51995,-0.449956 2.128154,-1.809394 3.981173,-4.472035 4.912203,-7.058681 0.09224,-0.256327 0.188119,-0.52195 0.212947,-0.590416 0.180578,-0.497367 0.433653,-1.501141 0.619011,-2.455234 0.475544,-2.4452 0.202144,-6.133686 -0.619759,-8.360674 -0.02535,-0.06813 -0.09306,-0.264094 -0.150505,-0.434914 -0.05766,-0.171046 -0.128169,-0.366941 -0.156753,-0.435171 -0.02883,-0.06854 -0.08957,-0.220468 -0.135188,-0.337833 -0.09131,-0.235017 -0.877594,-1.826425 -0.999997,-2.024321 -1.990966,-3.212943 -4.345878,-5.402297 -7.412336,-6.891157 -0.818158,-0.39727 -1.269364,-0.599188 -1.338847,-0.599188 -0.03386,0 -0.109853,-0.02606 -0.169301,-0.05787 C 47.032857,10.024849 46.260096,9.7681519 45.778789,9.6344734 45.115878,9.450613 44.156008,9.2399532 43.758718,9.1912795 43.587665,9.1704515 43.533357,9.1458274 43.105846,9.0869551 42.443725,9.078747 29.129877,9.0309351 24.083114,9.0418108 M 6.3695061,11.89333 H 8.2203939 V 9.9803198 H 6.3695051 M 31.109196,15.35953 c -1.688655,-0.01098 -3.154973,0.01037 -5.067339,0 -0.01254,-1.925661 0.0076,-3.128757 0,-5.031958 4.094271,0.02411 1.598757,-0.01344 5.067339,0 m -7.071792,6.304709 h -3.428318 v -3.417443 h 3.428315 M 5.072144,17.734562 c 1.8660521,0.02586 1.2255037,-0.01026 3.3142387,0 -0.010556,-2.212656 -5.489e-4,-0.429209 -0.00763,-3.433922 -2.6592358,0.002 -0.7736852,-0.002 -3.2991256,0 m 24.4716099,3.684329 h -1.861012 v -1.861074 c 1.486158,0.0121 0.354062,-0.0082 1.861012,0"
       stroke="none"
       fill="#db0404"
       fill-rule="evenodd"
       inkscape:connector-curvature="0"
       sodipodi:nodetypes="cccccccccccccccccccccccscccccccccccccccsccccccccccccccccccccccccc"
       style="fill:#0088ff;fill-opacity:1;stroke-width:0.250815" />
    <path
       sodipodi:nodetypes="ccsccccsscccccccccccsssccccscccccccscccccccccccccccccccccccccccccccccccccccccccccccccccsccccccccc"
       id="path2-9"
       style="fill:#ffffff;stroke-width:1.03024"
       d="m 291.9711,10.333758 c -9.80077,5.151264 -6.07127,15.138507 6.58638,17.633776 5.56439,1.097212 8.52385,3.06716 8.52385,6.309362 0,6.507059 -9.77355,7.788588 -17.41388,2.532242 l -1.91214,-1.315628 c -1.23236,1.319342 -1.68792,1.816217 -2.26396,2.507633 0.18615,0.175375 0.84949,0.896258 2.58025,2.054322 5.28999,3.504522 11.19256,4.315075 15.57155,2.857142 4.58852,-1.527693 8.81435,-5.827777 6.19887,-11.837241 -1.69219,-3.888038 -4.73948,-5.214358 -10.17495,-6.225887 -4.34712,-0.79532 -7.74955,-2.845036 -8.59847,-4.42956 -3.66151,-6.842921 7.62076,-10.869137 14.90463,-5.319179 l 1.02819,0.784023 1.14255,-1.36818 1.14254,-1.368169 -0.93443,-0.708807 C 303.93128,9.0861343 296.22912,8.0960582 291.9711,10.333758 M 198.9353,9.646611 c 0.0142,12.230105 -0.0863,21.105845 0,33.922866 h 8.39745 c 6.4609,-0.0034 11.00057,0.01811 13.7898,-1.280412 2.35358,-1.095702 3.59531,-2.302621 4.41049,-3.784282 0.67311,-1.223425 0.99508,-2.464355 0.99508,-4.338054 0,-3.494928 -1.69234,-5.986401 -5.29745,-7.798606 l -1.66029,-0.835478 1.53191,-0.94567 c 5.36808,-3.318425 5.38116,-10.64434 -1.23878,-14.166929 -1.73088,-0.8123424 -2.26063,-1.2379569 -7.49921,-1.3573801 -2.81324,-0.064133 -6.98447,0.037135 -13.429,0 m 18.86034,4.3699621 c 4.94982,2.39629 6.00841,8.396286 -1.7961,10.631442 -1.77526,0.510213 -7.87651,0.268506 -13.33894,0.260934 -0.0488,-8.484348 -0.0395,-9.69518 0,-11.629398 10.98491,0.02791 12.89712,-0.346626 15.13507,0.737022 m 0.36801,15.003483 c 2.56316,0.711392 4.51334,2.880894 4.51334,5.018282 0,5.37878 -2.33852,6.614369 -12.62325,6.666778 l -7.39317,0.03643 V 27.962253 l 6.84652,0.002 c 6.72828,0.03273 7.23259,0.06474 8.65656,0.471768 M 165.27167,9.0765617 c -5.18894,11.4401103 -10.93028,24.4423263 -15.28,34.4538353 h 6.27589 c 6.1891,-14.076045 4.57718,-10.45304 11.71145,-26.894473 6.47246,14.505039 4.58976,10.600467 11.61761,26.894473 1.00905,0.01334 5.13478,0.0092 6.07728,0 C 180.51523,31.603825 175.55589,20.26018 170.76843,9.0765617 m -89.271749,0 C 76.307749,20.516672 70.566401,33.518888 66.216687,43.530397 h 6.275877 c 6.189117,-14.076045 4.57718,-10.217162 11.711462,-26.658594 6.472465,14.505039 4.589762,10.364588 11.617603,26.658594 1.009048,0.01334 5.134781,0.0092 6.077271,0 C 96.740234,31.603825 91.780896,20.26018 86.993441,9.0765617 M 238.30227,43.530397 h 3.92268 c 9.57138,-21.274838 1.094,-2.391007 13.52718,-30.063101 2.53484,5.556525 5.9282,13.571086 13.41563,30.063101 1.63151,-0.0051 2.82931,0.0239 4.29484,0 C 266.56965,28.440205 262.9783,20.962801 257.56895,9.0765617 h -3.49711 M 112.41365,14.814269 h 10.72543 c 0.20126,19.416853 -0.003,17.980843 0,28.716128 4.85051,0.01632 0,0 6.22456,0 V 14.814269 h 10.6147 V 9.0765617 h -27.56469 m 212.41211,0 c -0.0324,2.7174203 -0.002,0.9249553 0,3.5616083 h 25.21477 V 9.0765617 m 14.29356,34.4538353 h 7.19736 c 8.4061,0.08218 9.57477,-0.0061 13.52648,-1.812298 11.71287,-5.357716 12.94864,-22.608554 2.11002,-29.447394 -4.12794,-2.6047537 -6.5404,-3.1761267 -15.81076,-3.1941433 h -7.18074 m 15.95935,4.2020313 c 4.90057,1.685278 7.60866,3.779082 9.58778,8.293942 1.89274,4.375294 0.52876,10.937758 -3.00933,14.47784 -3.14253,3.144537 -5.88647,3.942678 -13.19701,3.838539 l -5.2125,-0.0751 -0.0641,-13.464369 -0.0641,-13.463397 h 5.1945 c 3.90962,0 5.58203,0.09717 6.76473,0.392561 m -55.30996,11.42752 v 18.824273 h 25.21477 v -3.51491 H 328.91801 V 28.084016 h 21.12252 v -3.377892"
       inkscape:connector-curvature="0" />
  </g>
</svg>
